<svg xmlns="http://www.w3.org/2000/svg" width="18" height="13" viewBox="0 0 18 13" name="arrow-left">
    <path fill="#282E3D" fill-rule="nonzero" d="M1.009 7.262a1.292 1.292 0 0 1-.157-.191c-.015-.022-.024-.046-.037-.069-.029-.048-.058-.097-.08-.15-.012-.028-.018-.06-.028-.09-.016-.048-.035-.096-.045-.147a1.263 1.263 0 0 1 0-.503c.01-.052.03-.1.046-.15.01-.03.015-.06.027-.087.022-.054.052-.103.081-.153.013-.021.022-.045.036-.065.046-.069.099-.133.157-.192L5.742.735a1.271 1.271 0 0 1 1.796 1.797L4.976 5.093h11.117a1.27 1.27 0 0 1 0 2.541H4.976l2.562 2.56a1.267 1.267 0 0 1 .001 1.797 1.27 1.27 0 0 1-1.797 0L1.009 7.262z" opacity="1"/>
</svg>
