<svg xmlns="http://www.w3.org/2000/svg" width="18" height="18" viewBox="0 0 18 18" name="help">
    <g fill="none" fill-rule="evenodd" opacity="1">
        <path stroke="#282E3D" stroke-width="2" d="M14.65 3.344l-.001-.002a7.995 7.995 0 1 0 .001 11.305 7.972 7.972 0 0 0 0-11.303z"/>
        <path fill="#282E3D" d="M6.45 4.978a5.15 5.15 0 0 1 .592-.427 4.64 4.64 0 0 1 .688-.35c.246-.1.51-.18.792-.236.282-.056.588-.084.917-.084.461 0 .877.061 1.248.184.37.122.686.298.946.526.26.229.46.503.6.825.14.322.21.679.21 1.071 0 .373-.051.696-.154.969-.104.272-.234.509-.39.71-.158.202-.33.376-.52.523-.189.147-.368.284-.537.409a4.18 4.18 0 0 0-.442.372.829.829 0 0 0-.24.412l-.206 1.03h-1.56L8.23 9.728c-.04-.24-.015-.45.074-.63.088-.178.21-.34.364-.485a4.26 4.26 0 0 1 .52-.413c.19-.13.37-.27.537-.42a2.34 2.34 0 0 0 .423-.5c.116-.184.173-.404.173-.66 0-.294-.096-.528-.29-.702-.194-.175-.46-.262-.8-.262-.26 0-.477.027-.651.081a2.626 2.626 0 0 0-.45.18 10.01 10.01 0 0 0-.327.181.554.554 0 0 1-.28.081.507.507 0 0 1-.471-.272l-.604-.928zm1.354 8.593a1.222 1.222 0 0 1 .372-.89 1.3 1.3 0 0 1 .924-.369c.182 0 .351.033.508.1.157.066.295.155.413.268a1.219 1.219 0 0 1 .375.891 1.248 1.248 0 0 1-.375.899 1.293 1.293 0 0 1-.413.265 1.337 1.337 0 0 1-.508.095c-.186 0-.358-.032-.515-.095a1.236 1.236 0 0 1-.78-1.163z"/>
    </g>
</svg>