<svg xmlns="http://www.w3.org/2000/svg" width="16" height="14" viewBox="0 0 16 14" name="home">
    <path fill="#282E3D" fill-rule="nonzero" d="M13.77 7.708v5.81a.271.271 0 0 1-.278.277H9.884a.262.262 0 0 1-.258-.257v-3.371a.347.347 0 0 0-.337-.337H6.71a.347.347 0 0 0-.337.337v3.37a.262.262 0 0 1-.258.258H2.508a.271.271 0 0 1-.278-.277v-5.83l5.75-5.333 5.79 5.353zm2.141-.515l-2.795-2.558V.788h-2.677v1.388L8.139.074c-.1-.099-.278-.099-.377 0L.09 7.193c-.1.099-.12.238-.04.357a.32.32 0 0 0 .258.119h1.19l6.146-5.711c.179-.178.456-.178.654 0l6.207 5.73h1.19c.098 0 .198-.04.257-.138a.273.273 0 0 0-.04-.357z" opacity=".9"/>
</svg>
