<svg xmlns="http://www.w3.org/2000/svg" width="16" height="16" viewBox="0 0 16 16">
    <g fill="#282E3D" fill-rule="nonzero" opacity=".9">
        <path d="M13 9.4c0 .331-.256.6-.571.6H9.57C9.256 10 9 9.731 9 9.4V7.6c0-.331.256-.6.571-.6h2.858c.315 0 .571.269.571.6v1.8zm0 4c0 .331-.256.6-.571.6H9.57C9.256 14 9 13.731 9 13.4v-1.8c0-.331.256-.6.571-.6h2.858c.315 0 .571.269.571.6v1.8zm-6-4c0 .331-.256.6-.571.6H3.57C3.256 10 3 9.731 3 9.4V7.6c0-.331.256-.6.571-.6H6.43c.315 0 .571.269.571.6v1.8zm0 4c0 .331-.256.6-.571.6H3.57C3.256 14 3 13.731 3 13.4v-1.8c0-.331.256-.6.571-.6H6.43c.315 0 .571.269.571.6v1.8zM0 5v10.313c0 .379.298.687.667.687h14.666a.677.677 0 0 0 .667-.688V5H0zM2 1a1 1 0 1 1 0 2 1 1 0 0 1 0-2zm3 0a1 1 0 1 1 0 2 1 1 0 0 1 0-2zm3 0a1 1 0 1 1 0 2 1 1 0 0 1 0-2zm8 3V.667A.666.666 0 0 0 15.333 0H.667A.666.666 0 0 0 0 .667V4h16z"/>
    </g>
</svg>
