<svg xmlns="http://www.w3.org/2000/svg" width="30" height="23" viewBox="0 0 30 23">
    <path fill="#282E3D" fill-rule="nonzero" d="M1.786 0C.796 0 0 .62 0 1.389V5h30V1.389C30 .619 29.204 0 28.214 0H1.786zm1.443 1.25a1.25 1.25 0 1 1 0 2.5 1.25 1.25 0 0 1 0-2.5zm3.958 0a1.25 1.25 0 1 1 0 2.5 1.25 1.25 0 0 1 0-2.5zm3.959 0a1.25 1.25 0 1 1 0 2.5 1.25 1.25 0 0 1 0-2.5zM0 6.337h30V20.52c0 .914-.796 1.65-1.786 1.65H1.786C.796 22.17 0 21.434 0 20.52V6.337zM18.5 7.5a1 1 0 0 0-1 1v3a1 1 0 0 0 1 1h9.25a1 1 0 0 0 1-1v-3a1 1 0 0 0-1-1H18.5z" opacity=".9"/>
</svg>
