<svg xmlns="http://www.w3.org/2000/svg" width="13" height="16" viewBox="0 0 13 16">
    <path fill="#282E3D" fill-rule="nonzero" d="M12.017 4.226L8.087.21a.436.436 0 0 0-.313-.14h-5.74c-1.095 0-2 .905-2 2V13.93c0 1.096.905 2 2 2h8.105c1.096 0 2-.904 2-2V4.522a.407.407 0 0 0-.122-.296zm-6.939 8.609a.43.43 0 0 1-.435.435h-1.86a.43.43 0 0 1-.435-.435V10.99a.43.43 0 0 1 .435-.434h1.86a.43.43 0 0 1 .435.434v1.844zm0-4a.43.43 0 0 1-.435.435h-1.86a.43.43 0 0 1-.435-.435V6.99a.43.43 0 0 1 .435-.434h1.86a.43.43 0 0 1 .435.434v1.844zm4.661 3.513H6.383a.43.43 0 0 1-.435-.435.43.43 0 0 1 .435-.435h3.356a.43.43 0 0 1 .435.435.43.43 0 0 1-.435.435zm0-4H6.383a.43.43 0 0 1-.435-.435.43.43 0 0 1 .435-.435h3.356a.43.43 0 0 1 .435.435.43.43 0 0 1-.435.435zM8.61 4.26a.43.43 0 0 1-.435-.435V1.548l2.66 2.713H8.61z" opacity=".9"/>
</svg>
