<svg xmlns="http://www.w3.org/2000/svg" width="14" height="15" viewBox="0 0 14 15">
    <g fill="#282E3D" fill-rule="nonzero" stroke="#282E3D" opacity="1">
        <path d="M12.951 1.266v-.044l-.03-.045v-.03a.443.443 0 0 0-.118-.117h-.03L12.73 1H9.332a.443.443 0 1 0 0 .886h2.127L5.905 7.382a.443.443 0 1 0 .62.62l5.57-5.54V4.59a.443.443 0 0 0 .886 0V1.384a.443.443 0 0 0-.015-.089l-.015-.03z"/>
        <path d="M2.625 13.616h7.002a1.625 1.625 0 0 0 1.625-1.625V7.81a.443.443 0 1 0-.886 0v4.18a.739.739 0 0 1-.739.739H2.625a.739.739 0 0 1-.739-.74V4.99c0-.408.331-.739.739-.739h4.18a.443.443 0 0 0 0-.886h-4.18C1.728 3.364 1 4.09 1 4.989v7.002a1.625 1.625 0 0 0 1.625 1.625z"/>
    </g>
</svg>