<svg xmlns="http://www.w3.org/2000/svg" width="18" height="16" viewBox="0 0 18 16">
    <g fill="#FFF" fill-rule="nonzero" opacity=".8">
        <path d="M4.038 16h5.683c.625 0 1.117-.489 1.117-1.111s-.492-1.111-1.117-1.111H4.038a.894.894 0 0 1-.894-.89V3.112c0-.489.403-.889.894-.889h5.683c.625 0 1.117-.489 1.117-1.11C10.838.488 10.346 0 9.721 0H4.038C2.318 0 .91 1.4.91 3.111v9.778C.91 14.6 2.317 16 4.04 16z"/>
        <path d="M13.614 3.778a1.111 1.111 0 0 0-1.587 0 1.096 1.096 0 0 0 0 1.578l1.565 1.555H5.344c-.626 0-1.117.489-1.117 1.111s.491 1.111 1.117 1.111h8.025l-1.342 1.334a1.096 1.096 0 0 0 0 1.577c.224.223.515.334.783.334s.603-.156.804-.378l3.353-3.333a1.096 1.096 0 0 0 0-1.578l-3.353-3.311z"/>
    </g>
</svg>
