<svg xmlns="http://www.w3.org/2000/svg" width="34" height="29" viewBox="0 0 34 29">
    <g fill="#FFF" fill-rule="nonzero" opacity=".9">
        <path d="M16.681.39l-9.35 7.65-5.241.495a2.11 2.11 0 0 0-1.913 2.09v7.083c0 1.098.815 2.02 1.913 2.09l5.241.496 9.35 7.65c.78.637 1.913.07 1.913-.921V1.275C18.558.319 17.425-.248 16.68.39zM25.5 5.631c-.248-.319-.744-.39-1.063-.106l-1.274 1.133c-.284.248-.32.673-.071.992a10.367 10.367 0 0 1 2.266 6.481c0 2.444-.85 4.71-2.266 6.482a.719.719 0 0 0 .07.991l1.276 1.134c.318.283.779.247 1.062-.107a13.608 13.608 0 0 0 3.01-8.535c0-3.223-1.098-6.127-3.01-8.465z"/>
        <path d="M29.396 2.019c-.248-.319-.744-.319-1.027-.071l-1.275 1.169a.719.719 0 0 0-.071.991 15.643 15.643 0 0 1 3.612 10.023c0 3.79-1.345 7.296-3.612 10.023-.248.319-.213.744.07.992l1.276 1.169a.699.699 0 0 0 1.027-.071 18.8 18.8 0 0 0 4.427-12.148c0-4.64-1.665-8.784-4.427-12.077z"/>
    </g>
</svg>
