<svg xmlns="http://www.w3.org/2000/svg" width="52" height="36" viewBox="0 0 52 36">
    <g fill="none" fill-rule="nonzero" stroke="#FFF" opacity=".8">
        <path d="M49.333 12.5c1.197 0 2.167.97 2.167 2.167v6.666a2.165 2.165 0 0 1-2.167 2.167H36a5.5 5.5 0 1 1 0-11h13.333zM36 20.833a2.832 2.832 0 1 0 0-5.666 2.832 2.832 0 1 0 0 5.666z"/>
        <path d="M28.196 18c0 4.42 3.547 8 7.92 8H48.5v5.916c0 1.98-1.59 3.584-3.558 3.584H4.062C2.094 35.5.5 33.896.5 31.915V4.093C.5 2.112 2.095.5 4.063.5h40.88C46.908.5 48.5 2.111 48.5 4.094V10H36.119c-4.376 0-7.923 3.58-7.923 8z"/>
    </g>
</svg>
