<svg xmlns="http://www.w3.org/2000/svg" xmlns:xlink="http://www.w3.org/1999/xlink" width="17" height="10" viewBox="0 0 17 10">
    <defs>
        <path id="a" d="M3.903 4.608L8.368.094a.318.318 0 0 1 .45 0l1.248 1.26a.328.328 0 0 1 0 .458c-1.979 2-3.96 4.002-5.938 6.004l-.011.011-.013.012-.007.004-.013.009-.012.008-.007.004-.007.003-.007.003-.006.005-.007.002-.007.003-.007.003-.007.003-.007.002-.007.003-.007.001-.007.002-.007.001-.007.002-.007.001-.007.002-.007.001H3.882a.116.116 0 0 1-.022-.003l-.009-.001-.007-.002-.007-.001-.007-.002-.014-.004-.008-.003-.007-.001-.007-.003a.276.276 0 0 1-.03-.015l-.007-.002-.014-.009a.344.344 0 0 1-.056-.045L.093 4.176a.327.327 0 0 1 0-.456L1.34 2.459a.32.32 0 0 1 .452 0l2.111 2.15z"/>
    </defs>
    <g fill="none" fill-rule="evenodd" opacity=".6">
        <path fill="#FFF" d="M10.617 5.608l4.465-4.514a.318.318 0 0 1 .451 0l1.247 1.26a.328.328 0 0 1 0 .458l-5.938 6.004-.011.011-.013.012-.007.004-.012.009-.013.008-.007.004-.007.003-.007.003-.006.005-.007.002-.007.003-.007.003-.007.003-.007.002-.007.003-.007.001-.007.002-.007.001-.007.002-.007.001-.007.002-.007.001H10.596a.116.116 0 0 1-.022-.003l-.009-.001-.007-.002-.007-.001-.007-.002-.014-.004-.008-.003-.007-.001-.007-.003a.276.276 0 0 1-.03-.015l-.007-.002-.014-.009a.344.344 0 0 1-.056-.045L6.807 5.176a.327.327 0 0 1 0-.456l1.247-1.261a.32.32 0 0 1 .452 0l2.111 2.15z"/>
        <g transform="translate(1 1)">
            <use fill="#FFF" xlink:href="#a"/>
            <path stroke="#323846" d="M3.787 7.45l-.015.015-.001.001.04-.03-.024.013zm-.016.016l-.01.01.009-.01zm.04-.03l.008-.006.014-.008h.002l-.024.014zm.008-.006l.019-.015-.016.01.012-.003.029-.015-.007.003-.02.011.055-.018-.005.002-.007.001-.007.002-.007.001-.009.002-.006.001.06.285.044.057v-.096l-.103-.244-.007.003-.008.003-.007.003-.006.003.01-.004-.011.004-.017.011-.013.008.013-.008.014-.007zm.003-.004l-.013.004.013-.004zm.014-.005l.07-.022-.07.022zm.118-.011v-.002l-.05-.014.05.016zm0-.002l-.016-.004.01.002-.008-.001-.007-.002.02.005zm0 0v-.001l.01.002-.01-.002zm0-.001v-.003l-.002-.001h.002v-.002h-.072c.05.003.062.004.072.006zm-.05-3.51L8.013-.259a.818.818 0 0 1 1.161 0l1.248 1.261a.829.829 0 0 1 0 1.16l-1.474 1.49-1.474 1.49c-1.212 1.226-2.11 2.133-2.99 3.025l-.033.031-.088.067.014-.009-.013.01-.033.02-.072.038-.006.003H4.25l-.012.007-.006.003-.007.003-.008.003-.077.025-.034.01-.008.003-.007.001-.007.002-.007.001-.006.001-.008.002-.007.001-.103.011h-.072c-.089-.005-.089-.005-.109-.01l-.025-.005-.007-.001-.007-.002-.049-.012-.035-.011.054.014-.098-.03-.01-.004c-.026-.011-.026-.011-.027-.013l-.071-.036-.027-.017a.843.843 0 0 1-.14-.113L1.295 6.103l-.067-.068-.007-.008-1.484-1.5a.827.827 0 0 1 0-1.159l1.247-1.26a.82.82 0 0 1 1.165 0l1.755 1.788z"/>
        </g>
    </g>
</svg>
