<svg xmlns="http://www.w3.org/2000/svg" width="62" height="34" viewBox="0 0 62 34">
    <g fill="none" fill-rule="evenodd" transform="translate(1)">
        <path fill="#D7DBE2" fill-rule="nonzero" d="M59.333 12H46a5 5 0 1 0 0 10h13.333c.922 0 1.667-.745 1.667-1.667v-6.666c0-.922-.747-1.667-1.667-1.667zM46 20.333a3.332 3.332 0 1 1 0-6.666 3.332 3.332 0 1 1 0 6.666z"/>
        <path fill="#D7DBE2" fill-rule="nonzero" d="M37.696 17c0-4.695 3.77-8.5 8.423-8.5H58V3.094C58 1.387 56.632 0 54.942 0h-40.88C12.373 0 11 1.387 11 3.094v27.82C11 32.621 12.371 34 14.063 34h40.88C56.632 34 58 32.621 58 30.916V25.5H46.117c-4.651 0-8.421-3.805-8.421-8.5z"/>
        <circle cx="12" cy="17" r="12" fill="#D7DBE2" stroke="#FFF" stroke-width="2"/>
        <path fill="#FFF" fill-rule="nonzero" d="M12 11c-.585 0-1.059.474-1.059 1.059v3.882H7.06a1.059 1.059 0 1 0 0 2.118h3.882v3.882a1.059 1.059 0 0 0 2.118 0V18.06h3.882a1.059 1.059 0 0 0 0-2.118H13.06V12.06c0-.585-.474-1.059-1.059-1.059z"/>
    </g>
</svg>
