<svg xmlns="http://www.w3.org/2000/svg" width="8" height="8" viewBox="0 0 8 8">
    <path fill="#282E3D" fill-rule="nonzero" d="M7.73 1.584a.92.92 0 0 0 .001-1.3L7.716.27a.92.92 0 0 0-1.3 0L4.124 2.563a.176.176 0 0 1-.248 0L1.584.27a.92.92 0 0 0-1.3-.001L.27.284a.92.92 0 0 0 0 1.3l2.293 2.292a.176.176 0 0 1 0 .248L.27 6.416a.92.92 0 0 0-.001 1.3l.015.015a.92.92 0 0 0 1.3 0l2.292-2.293a.176.176 0 0 1 .248 0L6.416 7.73a.92.92 0 0 0 1.3.001l.015-.015a.92.92 0 0 0 0-1.3L5.437 4.124a.176.176 0 0 1 0-.248L7.73 1.584z" opacity=".3"/>
</svg>