<svg xmlns="http://www.w3.org/2000/svg" width="18" height="18" viewBox="0 0 18 18" name="cog">
    <path fill="#282E3D" fill-rule="nonzero" d="M17.761 5.207c-.28-.65-1.055-1.143-1.722-1.096-.668.046-1.44-.215-1.782-.54-.342-.326-.619-1.097-.594-1.768.026-.672-.491-1.424-1.151-1.687-.66-.263-1.553-.063-1.993.44-.439.501-1.175.87-1.643.885-.468.014-1.213-.337-1.666-.826C6.756.125 5.855-.05 5.205.23c-.65.281-1.146 1.055-1.1 1.723.047.668-.214 1.44-.54 1.782-.325.342-1.095.616-1.763.594C1.134 4.31.38 4.824.116 5.484c-.263.66-.063 1.554.439 1.993.502.44.871 1.176.885 1.642.015.466-.334 1.213-.826 1.667-.49.453-.667 1.354-.383 2.007.284.654 1.055 1.147 1.722 1.1.668-.047 1.44.214 1.782.54.342.326.619 1.093.594 1.764-.025.672.491 1.424 1.153 1.687.663.263 1.553.063 1.992-.44.44-.501 1.174-.87 1.642-.878.468-.007 1.213.34 1.67.83.457.49 1.357.657 2.006.376.65-.28 1.147-1.05 1.1-1.719-.047-.668.214-1.44.54-1.782.325-.342 1.094-.616 1.765-.589.671.027 1.424-.491 1.686-1.154.263-.662.067-1.553-.439-1.996-.505-.443-.874-1.17-.887-1.644-.013-.473.337-1.213.83-1.667a1.925 1.925 0 0 0 .374-2.014zm-7.378 7.01a3.501 3.501 0 0 1-4.645-4.508 3.502 3.502 0 0 1 6.471-.093 3.504 3.504 0 0 1-1.82 4.601h-.006z" opacity="1"/>
</svg>