<svg xmlns="http://www.w3.org/2000/svg" width="28" height="31" viewBox="0 0 28 31">
    <path fill="#1B1F2B" fill-rule="nonzero" d="M14.975 30.178a2.958 2.958 0 0 0-.134.073 6.006 6.006 0 0 1-.167.096c-.05.014-.096.027-.153.046l-.088.03-.102.034a1.658 1.658 0 0 1-.668-.002l-.1-.033-.09-.03c-.093-.03-.103-.033-.146-.045a4.24 4.24 0 0 1-.133-.077 2.61 2.61 0 0 0-.172-.095 1.707 1.707 0 0 1-.206-.175L.99 18.168a1.677 1.677 0 0 1 2.372-2.37l8.963 8.967V2.175a1.676 1.676 0 0 1 3.352 0v22.59l8.96-8.967c.32-.32.742-.492 1.186-.492a1.677 1.677 0 0 1 1.185 2.861l-11.82 11.831a1.728 1.728 0 0 1-.213.18z"/>
</svg>
