<svg xmlns="http://www.w3.org/2000/svg" width="11" height="20" viewBox="0 0 11 20">
    <path fill="#282E3D" fill-rule="nonzero" d="M.103 6.531c0-2.048 1.443-3.655 3.934-4.143V1.316a1.14 1.14 0 1 1 2.28 0v.907a9.93 9.93 0 0 1 2.132.306 1.357 1.357 0 0 1-.345 2.65 1.3 1.3 0 0 1-.372-.055c-.67-.2-1.368-.3-2.068-.296-1.511 0-1.992.655-1.992 1.308 0 .775.814 1.258 2.793 2.002 2.769.969 3.887 2.258 3.887 4.352 0 2.095-1.475 3.84-4.16 4.305v1.232a1.14 1.14 0 0 1-2.281 0v-1.07a10.752 10.752 0 0 1-2.772-.502 1.357 1.357 0 0 1-.893-1.616l.029-.11a1.316 1.316 0 0 1 1.285-.987c.152 0 .303.026.448.076.81.28 1.661.427 2.519.432 1.327 0 2.234-.512 2.234-1.444 0-.883-.744-1.443-2.467-2.025C1.802 9.951.103 8.79.103 6.531z"/>
</svg>
