<svg xmlns="http://www.w3.org/2000/svg" width="24" height="17" viewBox="0 0 24 17">
    <g fill="#FFF" fill-rule="nonzero">
        <path d="M6.9 16.354a1.292 1.292 0 0 1-.192.157c-.022.015-.046.024-.069.038-.048.028-.097.057-.15.08-.028.012-.06.017-.09.027-.048.017-.096.035-.147.045a1.263 1.263 0 0 1-.503 0c-.052-.01-.1-.03-.15-.046-.03-.01-.06-.015-.087-.026-.054-.023-.103-.053-.153-.082-.021-.013-.045-.022-.066-.036a1.288 1.288 0 0 1-.19-.157L.371 11.621a1.271 1.271 0 0 1 1.797-1.796l2.561 2.562V1.27a1.27 1.27 0 0 1 2.541 0v11.117l2.56-2.562a1.267 1.267 0 0 1 1.797 0 1.27 1.27 0 0 1 0 1.796L6.9 16.354zM18.9.372a1.292 1.292 0 0 0-.192-.157C18.686.2 18.662.19 18.639.178c-.048-.029-.097-.058-.15-.08-.028-.012-.06-.018-.09-.028-.048-.016-.096-.035-.147-.045a1.263 1.263 0 0 0-.503 0c-.052.01-.1.03-.15.046-.03.01-.06.015-.087.027-.054.022-.103.052-.153.081-.021.013-.045.022-.066.036a1.288 1.288 0 0 0-.19.157l-4.731 4.733a1.271 1.271 0 0 0 1.797 1.796L16.73 4.34v11.117a1.27 1.27 0 0 0 2.541 0V4.339l2.56 2.562a1.267 1.267 0 0 0 1.797.001 1.27 1.27 0 0 0 0-1.797L18.9.372z"/>
    </g>
</svg>
