<svg xmlns="http://www.w3.org/2000/svg" width="16" height="15" viewBox="0 0 16 15" name="like">
    <path fill="#282E3D" fill-rule="nonzero" d="M14.905 6.722c-.494-1.026-1.994-.988-3-.95-.228 0-.418.02-.57 0a1.584 1.584 0 0 1-.417-.076c0-.019.019-.076.057-.152.038-.076.095-.17.17-.285.342-.607.912-1.613 1.12-2.335.153-.55.039-1.253-.322-1.842-.285-.474-.684-.778-1.101-.873a.89.89 0 0 0-.76.17c-.474.362-.55 1.121-.55 1.273-.171 1.196-1.291 2.26-1.823 2.772-.076.076-.133.133-.19.17-.304.305-.494.76-.684 1.216-.113.285-.246.589-.398.817a6.248 6.248 0 0 1-.779.968h-.531V7.5a.85.85 0 0 0-.855-.854H.854A.85.85 0 0 0 0 7.5v6.646c0 .474.38.854.854.854h3.418c.418 0 .76-.285.836-.684.36.342.816.59.873.627.057.038.114.038.19.038H13.1c.399-.057.722-.266.93-.57.304-.474.285-1.063.247-1.386.59-.664.494-1.462.285-1.955.361-.418.55-.874.57-1.33 0-.38-.133-.702-.247-.91.57-.722.285-1.672.02-2.108zM4.367 14.146c0 .057-.038.095-.095.095H.854c-.057 0-.095-.038-.095-.095V7.5c0-.057.038-.095.095-.095h3.418c.057 0 .095.038.095.095v6.646zm9.74-5.07c.665.683-.113 1.5-.265 1.652a.376.376 0 0 0-.057.475c.019.038.493.816-.171 1.424-.095.095-.152.227-.114.36.038.171.095.703-.095 1.007-.076.133-.209.209-.38.228h-6.76c-.208-.133-.588-.38-.778-.627-.057-.057-.114-.114-.19-.133-.038-.019-.094-.019-.17-.038v-5.07h.702c.095 0 .19-.038.266-.095.019-.018.589-.57 1.006-1.215.19-.285.323-.626.456-.93.17-.399.323-.76.513-.968.038-.038.114-.095.17-.171.608-.57 1.861-1.766 2.051-3.228v-.02c.02-.227.114-.607.266-.72.019-.02.057-.039.152-.02.209.038.437.228.607.513.247.399.342.892.247 1.234-.19.646-.76 1.633-1.063 2.184-.076.114-.133.228-.17.304-.19.341-.21.645-.077.892.209.38.703.437 1.063.456h.627c.798-.02 2.032-.057 2.298.531 0 .02.018.02.018.038.02.038.532.874-.113 1.443-.076.076-.133.171-.133.266-.02.057.019.171.095.228z"/>
</svg>
