<svg xmlns="http://www.w3.org/2000/svg" width="13" height="12" viewBox="0 0 13 12">
    <g fill="#282E3D" fill-rule="nonzero" opacity=".9">
        <path d="M2.347 12h4.262c.469 0 .838-.367.838-.833a.828.828 0 0 0-.838-.834H2.347a.67.67 0 0 1-.67-.666V2.333a.67.67 0 0 1 .67-.666h4.262c.469 0 .838-.367.838-.834A.828.828 0 0 0 6.609 0H2.347A2.347 2.347 0 0 0 0 2.333v7.334A2.347 2.347 0 0 0 2.347 12z"/>
        <path d="M9.529 2.833a.833.833 0 0 0-1.19 0 .822.822 0 0 0 0 1.184l1.173 1.166H3.326a.828.828 0 0 0-.838.834c0 .466.369.833.838.833h6.019l-1.006 1a.822.822 0 0 0 0 1.183c.167.167.385.25.587.25A.892.892 0 0 0 9.529 9l2.515-2.5a.822.822 0 0 0 0-1.183L9.529 2.833z"/>
    </g>
</svg>
