<svg xmlns="http://www.w3.org/2000/svg" width="42" height="21" viewBox="0 0 42 21">
    <g fill="#282E3D" fill-rule="nonzero" opacity=".9">
        <path d="M16.107 17.395c.135-.154.276-.304.403-.466a3178.33 3178.33 0 0 0 3.821-4.885c.52-.663 1.066-.715 1.74-.21.938.726 1.85 1.527 2.871 2.101a6.23 6.23 0 0 0 4.418.627 3.418 3.418 0 0 0 1.5-.806c.776-.657 1.557-1.31 2.34-1.958.606-.497 1.177-.425 1.658.202l4.11 5.445c.109.143.236.276.354.409l.075-.047c-.058-.174-.11-.351-.18-.52-.944-2.308-1.89-4.614-2.838-6.919a1.72 1.72 0 0 1 .409-2.03 1248.44 1248.44 0 0 1 3.84-3.807c.177-.174.36-.428.644-.315.284.113.234.42.234.668V18.19c0 1.22-.695 1.964-1.91 2.046H16.107a2.446 2.446 0 0 1-1.657-.588 1.64 1.64 0 0 1-.552-1.328v-7.922-5.475a2.612 2.612 0 0 1 0-.364c.052-.37.306-.478.615-.257.099.073.191.155.277.243l3.755 3.705a1.71 1.71 0 0 1 .406 2.082c-.899 2.132-1.8 4.263-2.706 6.395-.086.202-.155.406-.232.61l.094.058z"/>
        <path d="M27.648.19h11.743c.265-.002.529.036.782.114 1.143.375 1.494 1.193.704 2.236a3.01 3.01 0 0 1-.387.409c-3.313 2.99-6.596 5.992-9.923 8.957a4.418 4.418 0 0 1-5.732.022c-1.491-1.278-2.93-2.62-4.385-3.948-1.84-1.686-3.682-3.38-5.522-5.08a2.938 2.938 0 0 1-.588-.78c-.442-.844-.003-1.69.938-1.866a3.93 3.93 0 0 1 .724-.06h11.646V.19zM8.916 2.27H1.651C.743 2.27 0 3.013 0 3.921s.743 1.651 1.651 1.651h7.265c.908 0 1.651-.743 1.651-1.65-.041-.95-.743-1.652-1.651-1.652zM9.272 7.946H3.567c-.713 0-1.297.743-1.297 1.651s.584 1.651 1.297 1.651h5.705c.713 0 1.296-.743 1.296-1.65-.032-.91-.583-1.652-1.296-1.652zM9.626 14.757H5.482c-.518 0-.941.743-.941 1.65 0 .909.423 1.652.941 1.652h4.144c.518 0 .942-.743.942-1.651-.023-.908-.424-1.651-.942-1.651z"/>
    </g>
</svg>
