<svg xmlns="http://www.w3.org/2000/svg" width="39" height="26" viewBox="0 0 39 26">
    <g fill="#282E3D" fill-rule="nonzero" opacity=".9">
        <path d="M8.667 2.876H1.733A1.58 1.58 0 0 0 .158 4.452c0 .866.709 1.575 1.575 1.575h6.934a1.58 1.58 0 0 0 1.575-1.575c-.039-.907-.709-1.576-1.575-1.576zM9.006 9.1H3.562c-.68 0-1.238.71-1.238 1.576 0 .866.557 1.576 1.238 1.576h5.444c.68 0 1.237-.71 1.237-1.576-.03-.867-.556-1.576-1.237-1.576zM9.345 15.364H5.39c-.495 0-.9.709-.9 1.575 0 .867.405 1.576.9 1.576h3.955c.494 0 .898-.709.898-1.576-.022-.866-.404-1.575-.898-1.575zM35.021.276H16.545a3.43 3.43 0 0 0-3.427 3.427v13.945a3.43 3.43 0 0 0 3.427 3.428h3.467v3.94c0 .63.749.945 1.182.472l4.412-4.373s0-.04.04-.04h9.415a3.43 3.43 0 0 0 3.427-3.427V3.703c-.04-1.89-1.576-3.427-3.467-3.427z"/>
    </g>
</svg>
