<svg xmlns="http://www.w3.org/2000/svg" width="8" height="12" viewBox="0 0 8 12">
    <path fill="#FFF" fill-rule="nonzero" d="M4.6.248a.861.861 0 0 0-.128-.105c-.015-.01-.03-.016-.046-.025C4.394.1 4.361.08 4.326.065c-.019-.008-.04-.012-.06-.018-.032-.011-.064-.023-.098-.03a.842.842 0 0 0-.335 0c-.035.007-.068.02-.1.03-.02.007-.04.01-.058.018-.036.015-.07.035-.102.055-.014.008-.03.014-.044.023a.859.859 0 0 0-.127.105L.247 3.403a.847.847 0 0 0 1.198 1.198l1.707-1.708v7.41a.847.847 0 0 0 1.694 0v-7.41l1.707 1.708a.844.844 0 0 0 1.198 0 .847.847 0 0 0 0-1.198L4.6.248z"/>
</svg>
