<svg xmlns="http://www.w3.org/2000/svg" width="8" height="12" viewBox="0 0 8 12" name="raw_down">
    <path fill="#282E3D" fill-rule="nonzero" d="M4.6 10.903a.861.861 0 0 1-.128.105c-.015.01-.03.016-.046.024-.032.02-.065.039-.1.054-.019.008-.04.012-.06.018-.032.011-.064.023-.098.03a.842.842 0 0 1-.335 0c-.035-.007-.068-.02-.1-.03-.02-.007-.04-.01-.058-.018-.036-.015-.07-.035-.102-.055-.014-.008-.03-.014-.044-.023a.859.859 0 0 1-.127-.105L.247 7.747A.847.847 0 0 1 1.446 6.55l1.707 1.708V.847a.847.847 0 0 1 1.694 0v7.41L6.554 6.55a.844.844 0 0 1 1.198 0c.33.33.33.866 0 1.197L4.6 10.903z" opacity=".5"/>
</svg>
