<svg xmlns="http://www.w3.org/2000/svg" width="14" height="18" viewBox="0 0 14 18">
    <path fill="#282E3D" fill-rule="nonzero" d="M13.997 6.251V8.22a9.788 9.788 0 0 1-2.132 6.14 8.895 8.895 0 0 1-4.537 3.154c-.212.067-.44.067-.652 0-1.96-.594-3.51-1.76-4.72-3.392A9.781 9.781 0 0 1 .133 9.808a9.913 9.913 0 0 1-.12-1.485c-.016-1.52 0-3.039-.011-4.556a.232.232 0 0 1 .17-.253c2.226-.98 4.451-1.969 6.675-2.967a.358.358 0 0 1 .329.002c2.216.99 4.432 1.977 6.65 2.96.118.04.19.16.17.283v2.46zM7.005 9.036v6.93c3.196-.948 5.18-4.263 5.421-6.923H7.138c-.047 0-.095 0-.145.013 0-.047.012-.095.012-.145v-6.54-.161c-.06.02-.105.034-.148.053-1.72.764-3.442 1.525-5.165 2.285a.196.196 0 0 0-.125.225v4.08c0 .058 0 .116.01.188h.23l5.198-.005z" opacity=".9"/>
</svg>
