<svg xmlns="http://www.w3.org/2000/svg" width="13" height="17" viewBox="0 0 13 17" name="share2">
    <path fill="#282E3D" fill-rule="nonzero" d="M5.929 2.281v9.254h1.144V2.28l1.58 1.58.809-.81L6.5.091l-2.96 2.96.808.81 1.58-1.58zm5.596 3.364h-3.14v1.144h3.14a.19.19 0 0 1 .19.191v8.545a.19.19 0 0 1-.19.19H1.478a.19.19 0 0 1-.191-.19V6.98a.19.19 0 0 1 .19-.19h3.14V5.644h-3.14c-.736 0-1.335.6-1.335 1.335v8.545c0 .736.6 1.335 1.336 1.335h10.047c.736 0 1.335-.599 1.335-1.335V6.98c0-.736-.6-1.335-1.335-1.335z"/>
</svg>
