<svg xmlns="http://www.w3.org/2000/svg" width="16" height="16" viewBox="0 0 16 16">
    <g fill="#FFF" fill-rule="nonzero" opacity=".5">
        <path d="M3.4 4.4c.133.133.317.2.5.2a.706.706 0 0 0 .5-.2.706.706 0 0 0 .2-.5.706.706 0 0 0-.2-.5l-1-1a.725.725 0 0 0-1 0 .706.706 0 0 0-.2.5c0 .183.067.367.2.5l1 1zM2.9 8c0-.383-.317-.7-.7-.7H.767c-.384 0-.7.317-.7.7 0 .383.316.7.7.7h1.416c.4 0 .717-.317.717-.7zM12.1 4.6a.706.706 0 0 0 .5-.2l1-1a.725.725 0 0 0 0-1 .706.706 0 0 0-.5-.2.706.706 0 0 0-.5.2l-1 1a.706.706 0 0 0-.2.5c0 .183.067.367.2.5s.317.2.5.2zM8 2.9c.383 0 .7-.317.7-.7V.767c0-.384-.317-.7-.7-.7-.383 0-.7.316-.7.7v1.416c0 .4.317.717.7.717zM15.233 7.3h-1.416c-.384 0-.7.317-.7.7 0 .383.316.7.7.7h1.416c.384 0 .7-.317.7-.7 0-.383-.316-.7-.7-.7zM8 4.15A3.862 3.862 0 0 0 4.15 8 3.862 3.862 0 0 0 8 11.85 3.862 3.862 0 0 0 11.85 8 3.862 3.862 0 0 0 8 4.15zM12.6 11.6c-.267-.283-.717-.267-1 0a.706.706 0 0 0-.2.5c0 .183.067.367.2.5l1 1c.133.133.317.2.5.2a.706.706 0 0 0 .5-.2.725.725 0 0 0 0-1l-1-1zM8 13.1c-.383 0-.7.317-.7.7v1.417c0 .383.317.7.7.7.383 0 .7-.317.7-.7V13.8c0-.383-.317-.7-.7-.7zM3.4 11.6l-1 1a.725.725 0 0 0 0 1c.133.133.317.2.5.2a.706.706 0 0 0 .5-.2l1-1a.725.725 0 0 0 0-1 .725.725 0 0 0-1 0z"/>
    </g>
</svg>
