<svg xmlns="http://www.w3.org/2000/svg" width="33" height="41" viewBox="0 0 33 41">
    <path fill="#1B1F2B" fill-rule="nonzero" d="M32.3 20.462a15.76 15.76 0 0 0-4.62-11.18c-.588-.589-1.61-.589-2.21.012a1.515 1.515 0 0 0 .012 2.186c2.405 2.405 3.695 5.551 3.695 8.982 0 6.116-4.383 11.338-10.308 12.449l-.829.155v-3.514c0-.31-.36-.484-.596-.307l-6.72 5.17a.35.35 0 0 0 0 .57l6.713 5.165a.38.38 0 0 0 .603-.302v-3.625l.604-.084c7.791-1.083 13.656-7.75 13.656-15.677zm-28.477 0c0-6.117 4.383-11.339 10.308-12.45l.829-.155v3.514c0 .31.36.484.598.306l6.719-5.125a.351.351 0 0 0-.002-.573L15.563.774a.38.38 0 0 0-.603.301v3.628l-.607.082C6.579 5.824.7 12.52.7 20.462a15.76 15.76 0 0 0 4.62 11.18 1.585 1.585 0 0 0 2.21-.012c.615-.586.615-1.589-.017-2.191-2.374-2.42-3.69-5.614-3.69-8.977z"/>
</svg>
