<?xml version="1.0" encoding="iso-8859-1"?>
<!-- Generator: Adobe Illustrator 19.0.0, SVG Export Plug-In . SVG Version: 6.00 Build 0)  -->
<svg xmlns="http://www.w3.org/2000/svg" xmlns:xlink="http://www.w3.org/1999/xlink" version="1.1" id="Capa_1" x="0px" y="0px" viewBox="0 0 482.4 482.4" style="enable-background:new 0 0 482.4 482.4;" xml:space="preserve" width="512px" height="512px">
<g>
	<g>
		<path d="M316,241c0,33.8,27.6,61.8,61.8,61.8H482V179.2H377.4C343.6,179.2,316,207.2,316,241z M413.6,239.5    c0,17.9-14.4,32.3-32.3,32.3S349,257.4,349,239.5s14.4-32.3,32.3-32.3S413.6,221.6,413.6,239.5z" fill="#1b1f2b"/>
		<path d="M377.4,322.2c-44.7,0-81.2-36.5-81.2-81.2s36.5-81.2,81.2-81.2h104.5v-48.2c0-25.3-20.6-45.9-45.9-45.9H45.9    C20.6,65.7,0,86.3,0,111.6v259.2c0,25.3,20.6,45.9,45.9,45.9h390.6c25.3,0,45.9-20.6,45.9-45.9v-48.6H377.4z" fill="#1b1f2b"/>
	</g>
</g>
<g>
</g>
<g>
</g>
<g>
</g>
<g>
</g>
<g>
</g>
<g>
</g>
<g>
</g>
<g>
</g>
<g>
</g>
<g>
</g>
<g>
</g>
<g>
</g>
<g>
</g>
<g>
</g>
<g>
</g>
</svg>
