<svg xmlns="http://www.w3.org/2000/svg" width="12" height="12" viewBox="0 0 12 12">
    <path fill="#FFF" fill-rule="nonzero" d="M11.596 2.376a1.38 1.38 0 0 0 .001-1.95l-.023-.023a1.379 1.379 0 0 0-1.95.001L6.186 3.843a.264.264 0 0 1-.372 0L2.376.404A1.38 1.38 0 0 0 .426.403L.403.426a1.379 1.379 0 0 0 .001 1.95l3.439 3.438a.264.264 0 0 1 0 .372L.404 9.624a1.38 1.38 0 0 0-.001 1.95l.023.023a1.379 1.379 0 0 0 1.95-.001l3.438-3.439a.264.264 0 0 1 .372 0l3.438 3.439a1.38 1.38 0 0 0 1.95.001l.023-.023a1.379 1.379 0 0 0-.001-1.95L8.157 6.186a.264.264 0 0 1 0-.372l3.439-3.438z" opacity="1"/>
</svg>
