<svg xmlns="http://www.w3.org/2000/svg" width="27" height="23" viewBox="0 0 27 23">
    <g fill="#FFF" fill-rule="nonzero">
        <path d="M11.449 14.945c-.146-.202-.282-.372-.403-.558-.214-.324-.397-.665-.402-1.074 0-.075-.068-.155-.12-.218-.528-.628-.878-1.335-.972-2.165-.042-.361 0-.707.308-.962.052-.043.063-.16.068-.24.005-.52.026-1.047 0-1.568-.068-1.186.622-2.553 2.263-2.978a5.415 5.415 0 0 1 2.56-.054c1.323.293 2.154 1.197 2.32 2.569.08.638.048 1.287.058 1.93 0 .144.021.23.147.346.146.138.245.388.261.601.057.665-.188 1.26-.549 1.792-.308.463-.575.925-.731 1.468-.11.377-.377.707-.596 1.09.193.106.423.255.664.367.904.41 1.813.808 2.722 1.212 2.038.91 2.927 2.553 2.953 4.76.005.388-.152.675-.502.782-.627.197-1.264.41-1.912.505-3.11.452-6.245.537-9.38.372-1.433-.074-2.865-.218-4.244-.67-.047-.016-.1-.032-.147-.053-.731-.282-.878-.49-.794-1.271.13-1.165.528-2.228 1.233-3.17.35-.462.795-.797 1.307-1.036.987-.458 1.99-.889 2.984-1.335.303-.133.59-.287.904-.442z"/>
        <path d="M22.875 18.48c-.5-1.415-1.503-2.483-3.023-3.162l-.91-.403c-.728-.323-1.167-.518-1.599-.713.279-.529.538-1.048.839-1.544.358-.596.563-1.237.572-1.884.042-.25.053-.505.03-.765a1.773 1.773 0 0 0-.323-.886 11.32 11.32 0 0 1-.084-.584v-.056c0-.619-.011-.977-.06-1.377-.206-1.68-1.264-2.847-2.903-3.21a6.064 6.064 0 0 0-.897-.131c-.005-.245-.039-.494.005-.728.274-1.354 1.289-2.3 2.608-2.48a5.82 5.82 0 0 1 2.04.072c1.394.3 2.261 1.316 2.393 2.834.052.611.02 1.234.015 1.85 0 .126.006.208.132.285.236.142.268.415.278.671.027.721-.23 1.36-.62 1.934a4.59 4.59 0 0 0-.62 1.3c-.121.398-.39.764-.616 1.206.221.115.479.268.747.393.936.432 1.877.847 2.808 1.289 1.772.852 2.607 2.364 2.781 4.33.01.11.016.219.026.328.042.617-.142.895-.736 1.016-.557.114-1.12.185-1.688.267-.398.056-.796.093-1.195.147zM4.125 18.48c.5-1.415 1.503-2.483 3.023-3.162l.91-.403c.728-.323 1.167-.518 1.599-.713-.279-.529-.538-1.048-.839-1.544-.358-.596-.563-1.237-.572-1.884a3.015 3.015 0 0 1-.03-.765c.022-.305.137-.63.323-.886.034-.194.06-.39.084-.584v-.056c0-.619.011-.977.06-1.377.206-1.68 1.264-2.847 2.903-3.21.298-.066.597-.11.897-.131.005-.245.039-.494-.005-.728-.274-1.354-1.289-2.3-2.608-2.48A5.82 5.82 0 0 0 7.83.63c-1.394.3-2.261 1.316-2.393 2.834-.052.611-.02 1.234-.015 1.85 0 .126-.006.208-.132.285-.236.142-.268.415-.278.671-.027.721.23 1.36.62 1.934.273.404.478.819.62 1.3.121.398.39.764.616 1.206-.221.115-.479.268-.747.393-.936.432-1.877.847-2.808 1.289-1.772.852-2.607 2.364-2.781 4.33-.01.11-.016.219-.026.328-.042.617.142.895.736 1.016.557.114 1.12.185 1.688.267.398.056.796.093 1.195.147z"/>
    </g>
</svg>