<svg xmlns="http://www.w3.org/2000/svg" width="24" height="16" viewBox="0 0 24 16">
    <g fill="#FFF" fill-rule="nonzero" opacity=".8">
        <path d="M23.078 5.6h-6.4a2.4 2.4 0 1 0 0 4.8h6.4a.8.8 0 0 0 .8-.8V6.4a.8.8 0 0 0-.8-.8zm-6.4 4a1.6 1.6 0 1 1-.001-3.2 1.6 1.6 0 0 1 0 3.2z"/>
        <path d="M12.678 8a4 4 0 0 1 4-4h5.642V1.456C22.32.653 21.67 0 20.868 0H1.454C.651 0 0 .653 0 1.456v13.092C0 15.351.651 16 1.454 16h19.414a1.45 1.45 0 0 0 1.452-1.451V12h-5.643a4 4 0 0 1-4-4z"/>
    </g>
</svg>
