<svg xmlns="http://www.w3.org/2000/svg" width="22" height="9" viewBox="0 0 22 9">
    <g fill="white" fill-rule="nonzero" opacity=".9">
        <path d="M18.225 4.214a3.9 3.9 0 0 0-3.85-3.3H13a.619.619 0 0 0-.625.625v6.6c0 .35.275.625.625.625h1.35a3.88 3.88 0 0 0 3.85-3.3h2.6c.35 0 .625-.275.625-.625a.619.619 0 0 0-.625-.625h-2.575zM10.575 3.789c.35 0 .625-.275.625-.625a.619.619 0 0 0-.625-.625h-1.45V1.514A.619.619 0 0 0 8.5.889H7.15a3.88 3.88 0 0 0-3.85 3.3H.7a.619.619 0 0 0-.625.625c0 .35.275.625.625.625h2.575a3.9 3.9 0 0 0 3.85 3.3H8.5c.35 0 .625-.275.625-.625V7.089h1.45c.35 0 .625-.275.625-.625a.619.619 0 0 0-.625-.625h-1.45v-2.05h1.45z"/>
    </g>
</svg>
