<svg xmlns="http://www.w3.org/2000/svg" width="63" height="36" viewBox="0 0 63 36">
    <g fill="none" fill-rule="evenodd" opacity=".8">
        <path stroke="#FFF" d="M60.333 12.5c1.197 0 2.167.97 2.167 2.167v6.666a2.165 2.165 0 0 1-2.167 2.167H47a5.5 5.5 0 1 1 0-11h13.333zM47 20.833a2.832 2.832 0 1 0 0-5.666 2.832 2.832 0 1 0 0 5.666z"/>
        <path stroke="#FFF" d="M39.196 18c0 4.42 3.547 8 7.92 8H59.5v5.916c0 1.98-1.59 3.584-3.558 3.584h-40.88c-1.969 0-3.562-1.604-3.562-3.585V4.093C11.5 2.112 13.095.5 15.063.5h40.88C57.908.5 59.5 2.111 59.5 4.094V10H47.119c-4.376 0-7.923 3.58-7.923 8z"/>
        <g transform="translate(1 6)">
            <circle cx="12" cy="12" r="12" fill="#282E3D" stroke="#FFF" stroke-opacity=".8"/>
            <path fill="#FFF" fill-rule="nonzero" d="M12 6c-.585 0-1.059.474-1.059 1.059v3.882H7.06a1.059 1.059 0 1 0 0 2.118h3.882v3.882a1.059 1.059 0 0 0 2.118 0V13.06h3.882a1.059 1.059 0 0 0 0-2.118H13.06V7.06C13.059 6.474 12.585 6 12 6z" opacity=".8"/>
        </g>
    </g>
</svg>
