<svg xmlns="http://www.w3.org/2000/svg" width="50" height="34" viewBox="0 0 50 34">
    <g fill="#FFF" fill-rule="nonzero">
        <path d="M48.333 12H35a5 5 0 1 0 0 10h13.333c.922 0 1.667-.745 1.667-1.667v-6.666c0-.922-.747-1.667-1.667-1.667zM35 20.333a3.332 3.332 0 1 1 0-6.666 3.332 3.332 0 1 1 0 6.666z"/>
        <path d="M26.696 17c0-4.695 3.77-8.5 8.423-8.5H47V3.094C47 1.387 45.632 0 43.942 0H3.062C1.373 0 0 1.387 0 3.094v27.82C0 32.621 1.371 34 3.063 34h40.88C45.632 34 47 32.621 47 30.916V25.5H35.117c-4.651 0-8.421-3.805-8.421-8.5z"/>
    </g>
</svg>
