<svg xmlns="http://www.w3.org/2000/svg" width="14" height="15" viewBox="0 0 14 15">
    <path fill="#FFF" fill-rule="nonzero" d="M5.31 8.19c-.12-.166-.232-.306-.33-.46-.177-.267-.328-.547-.332-.884 0-.062-.056-.127-.099-.18-.435-.517-.723-1.099-.8-1.782-.035-.298 0-.583.253-.793.044-.035.052-.131.056-.197.005-.43.022-.863 0-1.292C4.002 1.625 4.571.5 5.922.15A4.46 4.46 0 0 1 8.03.106c1.089.24 1.773.985 1.91 2.115.065.526.04 1.06.048 1.59 0 .118.017.188.12.284.12.114.203.32.216.495.047.548-.155 1.038-.452 1.476-.254.381-.474.762-.603 1.209-.09.31-.31.582-.49.898.159.087.348.21.546.302.745.337 1.493.666 2.242.998 1.679.75 2.41 2.103 2.432 3.92.004.32-.125.556-.413.644-.517.162-1.042.337-1.575.416-2.561.372-5.143.442-7.725.306-1.18-.06-2.359-.18-3.495-.551-.039-.013-.082-.027-.12-.044-.603-.232-.724-.403-.655-1.047a5.244 5.244 0 0 1 1.016-2.61 2.813 2.813 0 0 1 1.076-.854c.813-.377 1.64-.731 2.457-1.1.25-.109.487-.236.745-.363z" opacity=".9"/>
</svg>
