<svg xmlns="http://www.w3.org/2000/svg" width="28" height="31" viewBox="0 0 28 31">
    <path fill="#1B1F2B" fill-rule="nonzero" d="M14.975.812a2.957 2.957 0 0 1-.134-.073 6.007 6.007 0 0 0-.167-.096 2.85 2.85 0 0 1-.153-.046l-.088-.03a2.56 2.56 0 0 0-.102-.034 1.658 1.658 0 0 0-.668.002l-.1.033-.09.03c-.093.03-.103.033-.146.045a4.24 4.24 0 0 0-.133.077 2.61 2.61 0 0 1-.172.095 1.707 1.707 0 0 0-.206.175L.99 12.822a1.677 1.677 0 0 0 2.372 2.37l8.963-8.967v22.59a1.676 1.676 0 0 0 3.352 0V6.224l8.96 8.967c.32.32.742.492 1.186.492a1.677 1.677 0 0 0 1.185-2.861L15.188.991a1.728 1.728 0 0 0-.213-.18z"/>
</svg>
